<svg id="Layer_1" data-name="Layer 1" xmlns="http://www.w3.org/2000/svg" viewBox="0 0 1546.56 432"><defs><style>.cls-1{fill:#fff;}.cls-2{fill:#eaa307;}.cls-3{fill-rule:evenodd;}</style></defs><path class="cls-1" d="M358.83,191.37c2.46.74,4.92,1.51,7.39,2.28q21.66,6.78,42,14l-13.81,3.81-.09,0L274.57,243.37,154.84,211.52l-.09,0L54.86,184.92l78.86-88.86h281.7l78.85,88.86L424.63,203l-58.05-19.19A64,64,0,0,1,358.83,191.37Z"/><path class="cls-2" d="M565.73,242.2a44.73,44.73,0,0,1-17.53-16.62,48.46,48.46,0,0,1,0-48.07,44.75,44.75,0,0,1,17.53-16.63,52,52,0,0,1,25.07-6A52.58,52.58,0,0,1,612,159a42.51,42.51,0,0,1,15.92,11.86l-13.41,12.37q-9.15-10.56-22.68-10.57a30.19,30.19,0,0,0-15,3.67,26.17,26.17,0,0,0-10.25,10.25,32.28,32.28,0,0,0,0,29.9,26.17,26.17,0,0,0,10.25,10.25,30.09,30.09,0,0,0,15,3.67q13.53,0,22.68-10.7l13.41,12.38a41.83,41.83,0,0,1-16,12,53,53,0,0,1-21.26,4.13A51.75,51.75,0,0,1,565.73,242.2Z"/><path class="cls-2" d="M651.44,243.11a34,34,0,0,1-13.6-12.7,37.11,37.11,0,0,1,0-36.86,34,34,0,0,1,13.6-12.69,44.31,44.31,0,0,1,39.24,0,34.07,34.07,0,0,1,13.53,12.69,37.11,37.11,0,0,1,0,36.86,34.09,34.09,0,0,1-13.53,12.7,44.4,44.4,0,0,1-39.24,0ZM683.78,226q5-5.22,5-14t-5-14a16.72,16.72,0,0,0-12.69-5.22A17,17,0,0,0,658.33,198q-5,5.22-5,14t5,14a17,17,0,0,0,12.76,5.22A16.72,16.72,0,0,0,683.78,226Z"/><path class="cls-2" d="M722.51,151h20.11v95.63H722.51Z"/><path class="cls-2" d="M761.31,151h20.1v95.63h-20.1Z"/><path class="cls-2" d="M867.63,217.65H815.18a16.31,16.31,0,0,0,6.7,10.18q5.28,3.75,13.15,3.74a26.76,26.76,0,0,0,9.6-1.61,23.13,23.13,0,0,0,7.79-5.09l10.7,11.6q-9.79,11.21-28.61,11.21a45.25,45.25,0,0,1-20.75-4.57,33.63,33.63,0,0,1-13.92-12.7,34.91,34.91,0,0,1-4.9-18.43,35.38,35.38,0,0,1,4.84-18.37,33.84,33.84,0,0,1,13.27-12.75,41.09,41.09,0,0,1,37.31-.2,32,32,0,0,1,13,12.57,37.53,37.53,0,0,1,4.7,19C868,212.5,867.89,214.3,867.63,217.65Zm-47-22.3a16.51,16.51,0,0,0-5.67,10.57h34.15a16.6,16.6,0,0,0-5.67-10.5,16.94,16.94,0,0,0-11.34-3.93A17.35,17.35,0,0,0,820.59,195.35Z"/><path class="cls-2" d="M953,177.31v57.74q0,19.06-9.92,28.35t-29,9.28A72.17,72.17,0,0,1,895,270.23a41.77,41.77,0,0,1-15-7.08l8-14.44a32.8,32.8,0,0,0,11.08,5.74,44.31,44.31,0,0,0,13.4,2.12q10.44,0,15.4-4.7t5-14.24v-3q-7.87,8.64-21.91,8.64a36.86,36.86,0,0,1-17.47-4.19,31.88,31.88,0,0,1-12.56-11.79,35.43,35.43,0,0,1,0-35.06,31.88,31.88,0,0,1,12.56-11.79,36.86,36.86,0,0,1,17.47-4.19q15.07,0,22.94,9.92v-8.89ZM928,222.1a17.43,17.43,0,0,0,0-24.62q-5.09-4.69-13.08-4.7t-13.14,4.7a17.26,17.26,0,0,0,0,24.62q5.15,4.71,13.14,4.7T928,222.1Z"/><path class="cls-2" d="M1039.17,217.65H986.72a16.31,16.31,0,0,0,6.7,10.18q5.28,3.75,13.15,3.74a26.76,26.76,0,0,0,9.6-1.61,23.13,23.13,0,0,0,7.79-5.09l10.7,11.6q-9.79,11.21-28.61,11.21a45.25,45.25,0,0,1-20.75-4.57,33.63,33.63,0,0,1-13.92-12.7,34.91,34.91,0,0,1-4.9-18.43,35.38,35.38,0,0,1,4.84-18.37,33.84,33.84,0,0,1,13.27-12.75,41.09,41.09,0,0,1,37.31-.2,32,32,0,0,1,13,12.57,37.53,37.53,0,0,1,4.7,19C1039.56,212.5,1039.43,214.3,1039.17,217.65Zm-47-22.3a16.51,16.51,0,0,0-5.67,10.57h34.15a16.6,16.6,0,0,0-5.67-10.5,16.94,16.94,0,0,0-11.34-3.93A17.35,17.35,0,0,0,992.13,195.35Z"/><path class="cls-1" d="M1133.77,156.43v90.22h-7.86l-58-73.21v73.21h-9.53V156.43h7.86l58.12,73.21V156.43Z"/><path class="cls-1" d="M1204.59,222.37h-44.34a19,19,0,0,0,6.35,13.35q5.75,5.09,14.51,5.09a22.82,22.82,0,0,0,9.07-1.77,19.65,19.65,0,0,0,7.15-5.19l4,4.64a22.75,22.75,0,0,1-8.81,6.45,31.82,31.82,0,0,1-26.1-1.26,25.14,25.14,0,0,1-9.83-9.63,27.41,27.41,0,0,1-3.52-13.9,28.44,28.44,0,0,1,3.37-13.91,24.52,24.52,0,0,1,9.27-9.57,25.93,25.93,0,0,1,13.25-3.42,25.61,25.61,0,0,1,13.2,3.42,24.28,24.28,0,0,1,9.17,9.52,28.67,28.67,0,0,1,3.33,14Zm-38.44-18.09a19.21,19.21,0,0,0-5.9,12.75h37.59a19.21,19.21,0,0,0-5.9-12.75,19.45,19.45,0,0,0-25.79,0Z"/><path class="cls-1" d="M1247.21,243.42a13.65,13.65,0,0,1-5,2.78,20.34,20.34,0,0,1-6.2,1q-7.45,0-11.48-4t-4-11.38V199.69H1211v-6h9.48V182.06h7.15v11.59h16.12v6h-16.12v31.64q0,4.74,2.37,7.21c1.58,1.64,3.84,2.47,6.8,2.47a13.16,13.16,0,0,0,4.28-.71,10.7,10.7,0,0,0,3.58-2Z"/><path class="cls-1" d="M1337,193.65l-20.06,53h-6.75l-16.72-43.43-16.73,43.43H1270l-20-53h6.85l16.63,45,17-45h6.14l16.93,45,16.83-45Z"/><path class="cls-1" d="M1354.12,243.68a25.37,25.37,0,0,1-9.68-9.63,29.22,29.22,0,0,1,0-27.81,25.07,25.07,0,0,1,9.68-9.57,29.55,29.55,0,0,1,27.6,0,24.75,24.75,0,0,1,9.63,9.57,29.6,29.6,0,0,1,0,27.81,25,25,0,0,1-9.63,9.63,29.18,29.18,0,0,1-27.6,0Zm23.93-5.44a17.94,17.94,0,0,0,7-7.31,24.32,24.32,0,0,0,0-21.56,17.94,17.94,0,0,0-7-7.31,21.25,21.25,0,0,0-20.26,0,18.26,18.26,0,0,0-7,7.31,23.89,23.89,0,0,0,0,21.56,18.26,18.26,0,0,0,7,7.31,21.25,21.25,0,0,0,20.26,0Z"/><path class="cls-1" d="M1423.79,196a25.46,25.46,0,0,1,12.35-2.72v6.95l-1.72-.1q-8.36,0-13.1,5.14t-4.73,14.41v27h-7.16v-53h6.86V204A17.28,17.28,0,0,1,1423.79,196Z"/><path class="cls-1" d="M1468.68,220.05l-12.49,11.49v15.11H1449V171.88h7.16v50.69l31.64-28.92h8.86L1474,215.31l24.79,31.34H1490Z"/><path class="cls-1" d="M272.65,258.31,160.4,228.46v54.6c.51,3.6,1.89,8.24,3.31,9.93l.59.51.41.32c13,10.29,52.81,21.34,109.86,21.34s96.88-11,109.86-21.34l.43-.34c.2-.17.39-.33.56-.49,1.53-1.83,2.85-6.74,3.32-9.94V228.46L276.48,258.31A7.32,7.32,0,0,1,272.65,258.31Z"/><path class="cls-1" d="M426.06,354.58v-136H409.87V354.7a15,15,0,0,0-6.75,12.48h0a15,15,0,0,0,6.75,12.47v16.17a8.1,8.1,0,1,0,16.19,0V379.77a15,15,0,0,0,7-12.59h0A15,15,0,0,0,426.06,354.58Z"/><path class="cls-3" d="M234.73,190.25c14.19-6.68,31.28-25,33.75-29.12,4.9-8.25,19.77-7.5,29.75-5.24,6.94,1.57,12.16,5,20.18,9.73-7-7.47-14.41-18.78-40.35-21.29l-.16,0-.55-4.06.14,0c8.83,2.88,17.06,3.31,28-12.28-30.89,26.56-38.88-30.63-75.33,20,9.32-8.52,17-12,23.69-12.8,26.94-3.38-10.57,49.28-19.15,55ZM260.55,109l.27-.2h0l10.75-8,13.71,1-4.09,3.59c-2-.83-5.06-.41-6.94,0-2.08.5-5.66,1.75-6.68,4l-5.89-.34v5.77c1.73,2.66-2.61,3.17-.86.14v-6Zm8,1.55c.23-3.21,9.93-5.56,12.59-3.78l2.94,4.46-.26,0a9.2,9.2,0,0,0-6.84-2.55,11.33,11.33,0,0,0-9.17,5.44h-.06l.8-3.62Zm8.43.54a8.07,8.07,0,1,1-8.06,8.07A8.06,8.06,0,0,1,277,111.09Z"/><rect x="242.55" y="196.16" width="21.1" height="26.96"/><rect x="270.26" y="183.68" width="21.1" height="39.45"/><rect x="297.85" y="170.7" width="21.1" height="52.43"/></svg>