<svg id="Layer_1" data-name="Layer 1" xmlns="http://www.w3.org/2000/svg" viewBox="0 0 1516.32 393.12"><defs><style>.cls-1{fill:#eaa307;}.cls-2{fill:#231f20;}.cls-3,.cls-4{fill-rule:evenodd;}.cls-4,.cls-5{fill:#fff;}</style></defs><path class="cls-1" d="M547.19,200.74A45,45,0,0,1,529.56,184a48.76,48.76,0,0,1,0-48.37,45,45,0,0,1,17.63-16.72,56.26,56.26,0,0,1,46.55-1.88,42.62,42.62,0,0,1,16,11.93l-13.48,12.44q-9.21-10.62-22.82-10.63a30.23,30.23,0,0,0-15,3.7,26.25,26.25,0,0,0-10.31,10.3,32.44,32.44,0,0,0,0,30.09,26.25,26.25,0,0,0,10.31,10.3,30.23,30.23,0,0,0,15,3.7q13.62,0,22.82-10.76l13.48,12.45a42,42,0,0,1-16.07,12.05,53.32,53.32,0,0,1-21.4,4.15A52.14,52.14,0,0,1,547.19,200.74Z"/><path class="cls-1" d="M633.42,201.65a34.13,34.13,0,0,1-13.68-12.77,37.33,37.33,0,0,1,0-37.08A34.16,34.16,0,0,1,633.42,139a44.66,44.66,0,0,1,39.48,0,34.29,34.29,0,0,1,13.61,12.78,37.33,37.33,0,0,1,0,37.08,34.27,34.27,0,0,1-13.61,12.77,44.66,44.66,0,0,1-39.48,0ZM666,184.41q5-5.25,5-14.07t-5-14.07A16.84,16.84,0,0,0,653.19,151a17.06,17.06,0,0,0-12.84,5.25q-5.05,5.25-5.05,14.07t5.05,14.07a17.06,17.06,0,0,0,12.84,5.25A16.84,16.84,0,0,0,666,184.41Z"/><path class="cls-1" d="M704.92,109h20.23v96.21H704.92Z"/><path class="cls-1" d="M744,109h20.23v96.21H744Z"/><path class="cls-1" d="M850.92,176H798.15a16.45,16.45,0,0,0,6.74,10.25,22.39,22.39,0,0,0,13.23,3.76,26.8,26.8,0,0,0,9.66-1.62,23.3,23.3,0,0,0,7.84-5.13L846.38,195q-9.86,11.28-28.78,11.28a45.52,45.52,0,0,1-20.88-4.6,33.69,33.69,0,0,1-14-12.77,35.16,35.16,0,0,1-4.93-18.54,35.58,35.58,0,0,1,4.87-18.48A34.06,34.06,0,0,1,796,139a39.3,39.3,0,0,1,19-4.6,38.9,38.9,0,0,1,18.54,4.41,32.21,32.21,0,0,1,13,12.64,37.77,37.77,0,0,1,4.73,19.13C851.31,170.86,851.18,172.67,850.92,176ZM803.6,153.61a16.52,16.52,0,0,0-5.71,10.63h34.36a16.71,16.71,0,0,0-5.7-10.56,17.06,17.06,0,0,0-11.41-4A17.42,17.42,0,0,0,803.6,153.61Z"/><path class="cls-1" d="M936.76,135.46v58.09q0,19.19-10,28.52t-29.18,9.34a72.66,72.66,0,0,1-19.19-2.47,41.81,41.81,0,0,1-15-7.13l8-14.52a32.93,32.93,0,0,0,11.15,5.77A44.23,44.23,0,0,0,896,215.2q10.51,0,15.5-4.73t5-14.33v-3q-7.9,8.68-22,8.69a37,37,0,0,1-17.57-4.22,32.07,32.07,0,0,1-12.64-11.86,35.63,35.63,0,0,1,0-35.27,32.07,32.07,0,0,1,12.64-11.86,37,37,0,0,1,17.57-4.22q15.16,0,23.08,10v-8.95Zm-25.09,45.06a17.54,17.54,0,0,0,0-24.77Q906.54,151,898.51,151t-13.23,4.73a17.4,17.4,0,0,0,0,24.77q5.19,4.72,13.23,4.73T911.67,180.52Z"/><path class="cls-1" d="M1023.5,176H970.73a16.45,16.45,0,0,0,6.74,10.25,22.39,22.39,0,0,0,13.23,3.76,26.8,26.8,0,0,0,9.66-1.62,23.3,23.3,0,0,0,7.84-5.13L1019,195q-9.86,11.28-28.78,11.28a45.52,45.52,0,0,1-20.88-4.6,33.69,33.69,0,0,1-14-12.77,35.16,35.16,0,0,1-4.93-18.54,35.58,35.58,0,0,1,4.87-18.48A34.06,34.06,0,0,1,968.59,139a39.3,39.3,0,0,1,19-4.6,38.9,38.9,0,0,1,18.54,4.41,32.21,32.21,0,0,1,13,12.64,37.77,37.77,0,0,1,4.73,19.13C1023.89,170.86,1023.76,172.67,1023.5,176Zm-47.32-22.43a16.52,16.52,0,0,0-5.71,10.63h34.36a16.71,16.71,0,0,0-5.7-10.56,17.06,17.06,0,0,0-11.41-4A17.42,17.42,0,0,0,976.18,153.61Z"/><path class="cls-2" d="M1117.77,114.45v90.77h-5.45l-61.85-78.84v78.84h-6.61V114.45h5.58l61.71,78.84V114.45Z"/><path class="cls-2" d="M1190.05,180.79h-44.6a19,19,0,0,0,6.38,13.43q5.79,5.11,14.6,5.12a22.86,22.86,0,0,0,9.12-1.78,19.91,19.91,0,0,0,7.2-5.22l4.06,4.67a22.92,22.92,0,0,1-8.87,6.48,30,30,0,0,1-11.71,2.23,29.6,29.6,0,0,1-14.55-3.49,25.27,25.27,0,0,1-9.88-9.68,27.59,27.59,0,0,1-3.55-14,28.49,28.49,0,0,1,3.4-14,24.47,24.47,0,0,1,9.32-9.63,26,26,0,0,1,13.33-3.45,25.76,25.76,0,0,1,13.28,3.45,24.38,24.38,0,0,1,9.23,9.58,28.82,28.82,0,0,1,3.34,14Zm-38.67-18.2a19.3,19.3,0,0,0-5.93,12.82h37.81a19.3,19.3,0,0,0-5.93-12.82,19.57,19.57,0,0,0-25.95,0Z"/><path class="cls-2" d="M1232.93,202a13.58,13.58,0,0,1-5,2.79,20.24,20.24,0,0,1-6.23,1q-7.52,0-11.56-4.05t-4-11.46V158h-9.53V151.9h9.53V140.24h7.19V151.9h16.22V158h-16.22v31.83c0,3.18.8,5.59,2.39,7.25s3.86,2.48,6.84,2.48a13.38,13.38,0,0,0,4.31-.71,10.76,10.76,0,0,0,3.6-2Z"/><path class="cls-2" d="M1323.25,151.9l-20.17,53.32h-6.79l-16.83-43.69-16.83,43.69h-6.79l-20.07-53.32h6.89l16.73,45.31,17.13-45.31h6.18l17,45.31,16.93-45.31Z"/><path class="cls-2" d="M1340.49,202.23a25.58,25.58,0,0,1-9.74-9.68,29.41,29.41,0,0,1,0-28,25,25,0,0,1,9.74-9.63,29.67,29.67,0,0,1,27.77,0,24.69,24.69,0,0,1,9.68,9.63,29.71,29.71,0,0,1,0,28,25.22,25.22,0,0,1-9.68,9.68,29.37,29.37,0,0,1-27.77,0Zm24.07-5.48a18,18,0,0,0,7-7.35,24.51,24.51,0,0,0,0-21.69,18,18,0,0,0-7-7.35,21.34,21.34,0,0,0-20.38,0,18.33,18.33,0,0,0-7.09,7.35,24,24,0,0,0,0,21.69,18.33,18.33,0,0,0,7.09,7.35,21.34,21.34,0,0,0,20.38,0Z"/><path class="cls-2" d="M1410.58,154.23a25.63,25.63,0,0,1,12.42-2.74v7l-1.72-.1q-8.41,0-13.18,5.17t-4.76,14.5v27.17h-7.2V151.9H1403v10.44A17.45,17.45,0,0,1,1410.58,154.23Z"/><path class="cls-2" d="M1455.74,178.45,1443.17,190v15.21H1436V130h7.19v51L1475,151.9h8.93l-22.81,21.79,24.93,31.53h-8.81Z"/><path d="M252.33,217l-112.93-30v54.94c.52,3.62,1.91,8.28,3.34,10,.18.17.38.34.59.51l.41.33c13,10.35,53.13,21.46,110.52,21.46s97.47-11.1,110.53-21.46l.44-.35c.2-.17.39-.33.56-.49,1.54-1.84,2.87-6.78,3.33-10V186.91L256.19,217A7.43,7.43,0,0,1,252.33,217Z"/><path d="M112.56,53.72l-79.33,89.4,100.5,26.73.08,0,120.45,32,120.45-32,.09,0L388.7,166q-20.44-7.26-42.23-14.12c-32.8-10.29-64.38-18.62-94.41-25.39a7.52,7.52,0,1,1,4.41-14.37l148.77,49.18,70.06-18.19L396,53.72Z"/><path d="M406.68,313.8V176.94H390.39v137a15,15,0,0,0-6.79,12.54h0A15.06,15.06,0,0,0,390.39,339V355.3a8.15,8.15,0,0,0,16.29,0V339.15a15.06,15.06,0,0,0,7-12.68h0A15.05,15.05,0,0,0,406.68,313.8Z"/><path class="cls-3" d="M317.5,160.37l66.91-17.86L339.71,116,213.28,91.71c-3.33,6.07-4.1,11.19-3.71,15.41C211.81,131.67,255.38,152.52,317.5,160.37Z"/><path class="cls-4" d="M214.18,148.47c14.28-6.72,31.47-25.11,34-29.29,4.93-8.3,19.89-7.54,29.93-5.27,7,1.58,12.23,5,20.3,9.79-7-7.52-14.5-18.9-40.59-21.42l-.16,0-.55-4.09.14,0c8.88,2.89,17.16,3.32,28.2-12.36-31.08,26.72-39.12-30.81-75.79,20.15,9.37-8.58,17.11-12,23.83-12.88,27.11-3.39-10.64,49.59-19.27,55.34Zm26-81.74.27-.2h0l10.82-8,13.8,1-4.13,3.61c-2-.83-5.08-.41-7,0-2.09.51-5.7,1.76-6.73,4l-5.92-.34v5.8c1.74,2.69-2.63,3.2-.87.15v-6Zm8.07,1.56c.23-3.23,10-5.6,12.66-3.8l3,4.48-.27,0a9.25,9.25,0,0,0-6.88-2.57,11.38,11.38,0,0,0-9.22,5.48h-.06l.8-3.65Zm8.48.55A8.12,8.12,0,1,1,248.6,77,8.11,8.11,0,0,1,256.71,68.84Z"/><rect class="cls-5" x="222.05" y="154.43" width="21.22" height="27.13"/><rect class="cls-5" x="249.93" y="141.87" width="21.22" height="39.69"/><rect class="cls-5" x="277.69" y="128.8" width="21.22" height="52.75"/></svg>